<svg xmlns="http://www.w3.org/2000/svg" viewBox="0 0 1200 630">
  <rect width="1200" height="630" fill="#0a0a0f"/>

  <!-- Grid pattern -->
  <defs>
    <pattern id="grid" width="40" height="40" patternUnits="userSpaceOnUse">
      <path d="M 40 0 L 0 0 0 40" fill="none" stroke="#30363d" stroke-width="0.5"/>
    </pattern>
  </defs>
  <rect width="1200" height="630" fill="url(#grid)" opacity="0.3"/>

  <!-- Glow effect -->
  <circle cx="200" cy="315" r="300" fill="#00ff9f" opacity="0.05"/>

  <!-- Logo -->
  <rect x="80" y="240" width="120" height="120" rx="24" fill="#00ff9f"/>
  <text x="140" y="328" font-family="system-ui, sans-serif" font-size="80" font-weight="bold" fill="#0a0a0f" text-anchor="middle">V</text>

  <!-- Text -->
  <text x="240" y="290" font-family="system-ui, sans-serif" font-size="48" font-weight="bold" fill="#e6edf3">vaidy<tspan fill="#00ff9f">.ai</tspan></text>
  <text x="240" y="340" font-family="system-ui, sans-serif" font-size="24" fill="#8b949e">AI Foundations Team Lead @ Meta Reality Labs</text>

  <!-- Highlights -->
  <text x="240" y="420" font-family="system-ui, sans-serif" font-size="18" fill="#64ffda">Building the future of developer AI for the Metaverse</text>

  <!-- Tags -->
  <rect x="240" y="470" width="80" height="32" rx="4" fill="#161b22" stroke="#30363d"/>
  <text x="280" y="492" font-family="system-ui, sans-serif" font-size="14" fill="#bd93f9" text-anchor="middle">5 Patents</text>

  <rect x="340" y="470" width="140" height="32" rx="4" fill="#161b22" stroke="#30363d"/>
  <text x="410" y="492" font-family="system-ui, sans-serif" font-size="14" fill="#ff79c6" text-anchor="middle">Meta Connect 2025</text>

  <rect x="500" y="470" width="100" height="32" rx="4" fill="#161b22" stroke="#30363d"/>
  <text x="550" y="492" font-family="system-ui, sans-serif" font-size="14" fill="#ffb86c" text-anchor="middle">ACM ICPC</text>

  <!-- Terminal preview -->
  <rect x="700" y="140" width="420" height="350" rx="12" fill="#0d1117" stroke="#30363d"/>
  <rect x="700" y="140" width="420" height="36" rx="12" fill="#161b22"/>
  <circle cx="724" cy="158" r="6" fill="#ff5555"/>
  <circle cx="744" cy="158" r="6" fill="#f1fa8c"/>
  <circle cx="764" cy="158" r="6" fill="#00ff9f"/>

  <text x="720" y="210" font-family="monospace" font-size="14" fill="#00ff9f">$ whoami</text>
  <text x="720" y="240" font-family="monospace" font-size="14" fill="#e6edf3">Vaidyanathan P K</text>
  <text x="720" y="265" font-family="monospace" font-size="14" fill="#64ffda">AI Foundations Team Lead</text>
  <text x="720" y="290" font-family="monospace" font-size="14" fill="#8b949e">@ Meta Reality Labs</text>

  <text x="720" y="340" font-family="monospace" font-size="14" fill="#00ff9f">$ patents --count</text>
  <text x="720" y="370" font-family="monospace" font-size="14" fill="#e6edf3">5 US Patents (4 issued, 1 filed)</text>

  <text x="720" y="420" font-family="monospace" font-size="14" fill="#00ff9f">$ _</text>
</svg>
